<?xml version="1.0" standalone="no"?><!DOCTYPE svg PUBLIC "-//W3C//DTD SVG 1.1//EN" "http://www.w3.org/Graphics/SVG/1.1/DTD/svg11.dtd"><svg width="200" height="200" viewBox="0 0 200 200" version="1.1" xmlns="http://www.w3.org/2000/svg" xmlns:xlink="http://www.w3.org/1999/xlink"><defs><style type="text/css"><![CDATA[
@font-face { font-family: ifont; src: url("//at.alicdn.com/t/font_1442373896_4754455.eot?#iefix") format("embedded-opentype"), url("//at.alicdn.com/t/font_1442373896_4754455.woff") format("woff"), url("//at.alicdn.com/t/font_1442373896_4754455.ttf") format("truetype"), url("//at.alicdn.com/t/font_1442373896_4754455.svg#ifont") format("svg"); }

]]></style></defs><g class="transform-group"><g transform="scale(0.1953125, 0.1953125)"><path d="M512 0c-282.7776 0-512 229.2224-512 512s229.2224 512 512 512c282.7776 0 512-229.2224 512-512S794.7776 0 512 0L512 0zM512 921.6c-226.2016 0-409.6-183.3984-409.6-409.6s183.3984-409.6 409.6-409.6 409.6 183.3984 409.6 409.6S738.2016 921.6 512 921.6L512 921.6zM716.8 460.8 563.2 460.8l0-256c0-28.2624-22.8864-51.2-51.2-51.2-28.2624 0-51.2 22.9376-51.2 51.2l0 307.2c0 28.2624 22.9376 51.2 51.2 51.2l204.8 0c28.3136 0 51.2-22.9376 51.2-51.2C768 483.6864 745.1136 460.8 716.8 460.8L716.8 460.8z" fill="#272636"></path></g></g></svg>